<?xml version="1.0" encoding="UTF-8"?>
<svg id="_图层_1" data-name="图层_1" xmlns="http://www.w3.org/2000/svg" version="1.1" viewBox="0 0 595.28 109.89">
  <!-- Generator: Adobe Illustrator 29.0.0, SVG Export Plug-In . SVG Version: 2.1.0 Build 186)  -->
  <defs>
    <style>
      .st0 {
        fill: #fff;
      }
    </style>
  </defs>
  <path class="st0" d="M104.61,28.79c-2.1-2.1-4.58-3.77-7.37-4.96-5.6-2.41-12.53-2.4-18.1,0-2.81,1.2-5.29,2.88-7.37,4.96-2.09,2.08-3.76,4.56-4.97,7.37-1.2,2.81-1.8,5.86-1.8,9.05v34.67h13.52v-11.13h19.35v11.13h13.52v-34.67c0-3.2-.61-6.25-1.82-9.06-1.2-2.8-2.87-5.28-4.96-7.36ZM97.87,45.21v10.03h-19.35v-10.03c0-1.33.25-2.6.75-3.77.5-1.19,1.2-2.23,2.07-3.1.86-.86,1.89-1.55,3.09-2.06,2.36-1,5.17-1,7.53,0,1.2.51,2.22,1.18,3.1,2.06s1.55,1.9,2.06,3.1c.5,1.18.76,2.45.76,3.77Z"/>
  <path class="st0" d="M146.46,56.69c0,1.33-.25,2.57-.75,3.77-.51,1.19-1.2,2.24-2.05,3.09-.9.89-1.91,1.56-3.11,2.06-2.36,1-5.17,1-7.53,0-1.18-.5-2.22-1.19-3.09-2.06-.87-.87-1.56-1.91-2.06-3.09-.5-1.19-.75-2.43-.75-3.77v-23.19h-13.52v23.19c0,3.19.61,6.23,1.81,9.05,1.2,2.81,2.88,5.29,4.96,7.38,2.1,2.1,4.59,3.77,7.37,4.95,2.8,1.21,5.85,1.82,9.05,1.82s6.24-.61,9.05-1.82c2.78-1.17,5.26-2.84,7.37-4.95,2.09-2.09,3.75-4.57,4.96-7.38,1.2-2.81,1.82-5.85,1.82-9.05v-23.19h-13.52v23.19Z"/>
  <path class="st0" d="M195.05,56.69c0,1.33-.24,2.56-.75,3.77-.5,1.19-1.2,2.23-2.06,3.1-.87.87-1.91,1.56-3.1,2.06-2.35,1-5.16,1.01-7.54,0-1.19-.49-2.2-1.16-3.1-2.05-.86-.86-1.55-1.9-2.06-3.09-.51-1.2-.75-2.44-.75-3.77v-9.67h27.21v-13.52h-27.21v-11.48h-13.52v34.67c0,3.2.61,6.24,1.82,9.05,1.2,2.81,2.87,5.29,4.96,7.38,2.12,2.11,4.6,3.77,7.37,4.95,2.81,1.21,5.85,1.82,9.05,1.82s6.24-.61,9.05-1.82c2.79-1.18,5.27-2.85,7.37-4.95,2.09-2.09,3.76-4.57,4.97-7.38,1.2-2.81,1.8-5.86,1.8-9.05v-1.1h-13.52v1.1Z"/>
  <path class="st0" d="M250.39,40.27c-2.11-2.1-4.59-3.77-7.37-4.95-5.62-2.41-12.51-2.41-18.09,0-2.79,1.19-5.27,2.86-7.37,4.96-2.1,2.1-3.77,4.57-4.97,7.37-1.2,2.81-1.8,5.86-1.8,9.05s.61,6.23,1.81,9.05c1.2,2.81,2.88,5.29,4.96,7.38,2.1,2.1,4.59,3.77,7.37,4.95,2.8,1.21,5.85,1.82,9.05,1.82s6.24-.61,9.05-1.82c2.78-1.17,5.26-2.84,7.37-4.95,2.1-2.1,3.77-4.58,4.96-7.38,1.2-2.81,1.82-5.85,1.82-9.05s-.61-6.24-1.81-9.05c-1.19-2.78-2.85-5.26-4.96-7.38ZM243.64,56.69c0,1.33-.25,2.57-.75,3.77-.51,1.19-1.2,2.24-2.06,3.1-.87.87-1.91,1.56-3.09,2.06-2.39,1-5.16,1.01-7.54,0-1.18-.49-2.22-1.18-3.1-2.05-.87-.87-1.56-1.91-2.06-3.09-.5-1.19-.75-2.43-.75-3.77s.24-2.58.75-3.77c.5-1.19,1.2-2.23,2.06-3.1.86-.86,1.91-1.55,3.1-2.06,1.18-.5,2.44-.75,3.76-.75s2.57.25,3.77.75c1.19.51,2.24,1.2,3.1,2.06s1.55,1.9,2.06,3.09c.51,1.2.75,2.44.75,3.77Z"/>
  <path class="st0" d="M302.99,56.13c-1.1,2.97-2.98,5.46-5.59,7.41-2.63,1.96-5.58,2.92-9.02,2.92-2.14,0-4.16-.41-6-1.23-1.86-.82-3.52-1.95-4.92-3.35-1.39-1.38-2.51-3.03-3.3-4.91-.79-1.84-1.19-3.87-1.19-6.01s.4-4.16,1.19-6.01c.8-1.87,1.91-3.52,3.3-4.91,1.4-1.4,3.06-2.53,4.92-3.35,1.86-.82,3.88-1.23,6.01-1.23,3.29,0,6.27.92,8.87,2.72,2.59,1.8,4.46,4.18,5.56,7.08l.38,1.02,12.5-4.55-.4-1.04c-1.03-2.74-2.45-5.27-4.22-7.54-1.78-2.26-3.86-4.23-6.2-5.87-2.35-1.64-4.94-2.94-7.71-3.85-6.31-2.07-13.89-1.8-20.14.92-3.49,1.52-6.59,3.6-9.21,6.19-2.62,2.58-4.7,5.68-6.2,9.19-1.49,3.51-2.25,7.29-2.25,11.26s.76,7.76,2.25,11.26c1.5,3.5,3.58,6.6,6.2,9.22,2.62,2.61,5.72,4.7,9.23,6.2,3.51,1.5,7.3,2.25,11.26,2.25,3.13,0,6.17-.48,9-1.42,2.82-.92,5.48-2.26,7.9-3.99,2.39-1.73,4.49-3.78,6.24-6.11,1.77-2.33,3.16-4.95,4.14-7.77l.36-1.04-12.58-4.45-.38,1.02Z"/>
  <path class="st0" d="M357.46,40.27c-2.11-2.1-4.59-3.77-7.36-4.95-5.62-2.41-12.49-2.41-18.1,0-2.79,1.19-5.27,2.86-7.37,4.96-2.1,2.1-3.77,4.58-4.96,7.37-1.2,2.81-1.82,5.85-1.82,9.05s.61,6.24,1.81,9.05c1.2,2.81,2.87,5.3,4.96,7.38,2.1,2.1,4.58,3.77,7.37,4.95,2.81,1.21,5.85,1.82,9.05,1.82s6.24-.61,9.05-1.82c2.78-1.17,5.26-2.84,7.38-4.95,2.1-2.1,3.77-4.58,4.95-7.38,1.21-2.81,1.82-5.85,1.82-9.05s-.61-6.24-1.82-9.05c-1.18-2.78-2.85-5.26-4.96-7.38ZM341.05,47.02c1.33,0,2.57.25,3.77.75,1.19.51,2.24,1.2,3.09,2.06.86.86,1.55,1.9,2.06,3.09.51,1.2.75,2.44.75,3.77s-.24,2.57-.75,3.77c-.51,1.19-1.2,2.24-2.06,3.1-.87.87-1.91,1.56-3.09,2.06-2.4,1.01-5.13,1.01-7.54,0-1.18-.5-2.21-1.19-3.08-2.06s-1.57-1.91-2.06-3.09c-.51-1.2-.75-2.44-.75-3.77s.24-2.57.75-3.77c.49-1.18,1.19-2.22,2.06-3.09.86-.86,1.9-1.55,3.09-2.06,1.2-.51,2.44-.75,3.77-.75Z"/>
  <path class="st0" d="M422.13,38.9c-1.68-1.64-3.66-2.97-5.91-3.95-4.41-1.89-9.71-1.95-14.19-.09-1.85.77-3.52,1.79-4.98,3.03-1.49-1.24-3.16-2.26-5-3.03-4.44-1.86-9.73-1.8-14.16.09-2.24.97-4.23,2.3-5.9,3.94-1.68,1.65-3.03,3.62-4.03,5.86-1.01,2.24-1.52,4.68-1.52,7.25v27.87h13.52v-28.59c.18-1.27.75-2.3,1.73-3.13,2.04-1.71,5.1-1.69,7.03.25,1.01,1.02,1.53,2.21,1.57,3.6v27.87h13.52v-28.15c.09-1.37.63-2.49,1.62-3.42,1.98-1.84,5-1.84,6.92-.16.94.82,1.52,1.83,1.79,3.08v28.65h13.52v-27.87c0-2.57-.51-5.01-1.51-7.25-.99-2.24-2.35-4.22-4.03-5.86Z"/>
  <path class="st0" d="M469.49,28.79c-2.1-2.1-4.58-3.77-7.37-4.96-5.59-2.4-12.51-2.4-18.1,0-2.8,1.2-5.28,2.88-7.36,4.96-2.1,2.09-3.77,4.57-4.96,7.37-1.21,2.81-1.82,5.85-1.82,9.06v34.67h13.52v-9.72h26.6v-13.52h-26.6v-11.44c0-1.32.25-2.59.75-3.77.49-1.18,1.19-2.22,2.06-3.1.86-.86,1.9-1.55,3.09-2.06,2.4-1.01,5.13-1.01,7.54,0,1.19.51,2.24,1.2,3.09,2.06.86.86,1.55,1.9,2.06,3.1.5,1.18.75,2.45.75,3.77v1.1h13.52v-1.1c0-3.2-.61-6.25-1.82-9.06-1.19-2.79-2.86-5.27-4.95-7.36Z"/>
  <path class="st0" d="M511.34,33.5v23.19c0,1.33-.24,2.57-.75,3.77-.51,1.19-1.2,2.24-2.06,3.1-.87.87-1.91,1.56-3.09,2.06-2.4,1.01-5.13,1.01-7.54,0-1.18-.5-2.21-1.19-3.08-2.06s-1.57-1.91-2.06-3.09c-.51-1.2-.76-2.44-.76-3.77v-23.19h-13.52v23.19c0,3.2.61,6.24,1.82,9.05,1.19,2.81,2.86,5.3,4.95,7.38,1.88,1.88,4.06,3.41,6.49,4.55h-13.27v1.11c0,3.21.61,6.25,1.82,9.05,1.18,2.78,2.85,5.26,4.95,7.38,2.11,2.1,4.59,3.77,7.37,4.95,2.81,1.21,5.85,1.82,9.05,1.82s6.24-.61,9.05-1.82c2.78-1.17,5.26-2.84,7.38-4.95,2.11-2.13,3.78-4.61,4.95-7.37,1.21-2.8,1.82-5.85,1.82-9.05v-45.28h-13.52ZM492,77.79c.2.09.41.19.62.27,5.82,2.49,12.92,2.39,18.72-.23v.94c0,1.34-.24,2.57-.75,3.77-.51,1.19-1.2,2.24-2.06,3.1-.86.86-1.91,1.55-3.1,2.05-2.43,1.04-5.1,1.03-7.54,0-1.19-.51-2.24-1.2-3.09-2.05-.87-.88-1.57-1.93-2.06-3.11-.5-1.19-.75-2.43-.75-3.77v-.99Z"/>
</svg>